#!OML:ASF E:\Style4\Style4.ASF
:FULLY-SPECIFIED
:DEGREES
2127
root -0.0612576 17.1978 -0.966652 -4.14742 37.7608 2.07753
lowerback 12.0327 4.54265 -1.80725
upperback 12.8398 6.23897 0.803617
thorax 6.64933 3.10798 1.48207
lowerneck 3.33313 -7.91313 -5.47305
upperneck 32.5806 -13.9441 15.4244
head 11.6401 -5.25271 5.60562
rclavicle 4.39314e-014 -2.54444e-014
rhumerus -36.8085 6.44175 -88.7841
rradius 66.7798
rwrist 18.0233
rhand 1.06464 -3.43146
rfingers 7.12502
rthumb 26.6097 -31.5817
lclavicle 4.39314e-014 -2.54444e-014
lhumerus -33.1657 -19.6203 94.6876
lradius 74.7496
lwrist 2.21094
lhand -7.57994 34.5213
lfingers 7.12502
lthumb 18.313 63.6793
rfemur -8.77375 -16.6662 16.403
rtibia 43.796
rfoot -30.3272 -25.3274
rtoes 3.17282
lfemur -19.0255 -16.4329 -22.5875
ltibia 41.6913
lfoot -15.3183 -12.475
ltoes -9.20743
2128
root -0.0148035 17.2104 -0.958844 -4.03712 37.4533 2.28519
lowerback 11.4849 4.51615 -1.8739
upperback 12.6885 6.19106 0.98023
thorax 6.75152 3.06154 1.74437
lowerneck 3.26246 -7.90953 -5.75593
upperneck 32.6107 -13.8483 15.057
head 11.6381 -5.27046 5.51626
rclavicle -5.48646e-014 1.15295e-014
rhumerus -36.7329 6.65973 -88.6074
rradius 66.3496
rwrist 18.2018
rhand 1.65014 -3.52101
rfingers 7.12502
rthumb 27.17 -31.585
lclavicle -5.48646e-014 1.15295e-014
lhumerus -32.9227 -19.2799 94.8269
lradius 74.0091
lwrist 2.33913
lhand -7.20861 34.4139
lfingers 7.12502
lthumb 18.6702 63.538
rfemur -8.54913 -16.4007 16.0919
rtibia 43.5675
rfoot -30.2191 -25.3064
rtoes 3.01073
lfemur -18.6613 -16.0759 -22.8812
ltibia 41.3713
lfoot -15.3129 -12.4333
ltoes -8.99973
2129
root 0.02982 17.2248 -0.95208 -3.88406 37.1428 2.48227
lowerback 10.9756 4.55951 -1.74157
upperback 12.4399 6.24759 1.03148
thorax 6.75547 3.09077 1.751
lowerneck 3.46363 -8.00019 -5.80432
upperneck 32.5053 -13.8997 14.807
head 11.5427 -5.33355 5.4219
rclavicle -6.10269e-014 3.73715e-014
rhumerus -36.8029 6.45049 -88.5731
rradius 65.8698
rwrist 18.5277
rhand 1.81992 -3.66181
rfingers 7.12502
rthumb 27.3324 -31.7003
lclavicle -6.10269e-014 3.73715e-014
lhumerus -32.8774 -19.4226 94.9183
lradius 73.3312
lwrist 2.6409
lhand -7.00863 34.4374
lfingers 7.12502
lthumb 18.8625 63.5429
rfemur -8.40031 -16.1139 15.8153
rtibia 43.3411
rfoot -30.0928 -25.2815
rtoes 2.8442
lfemur -18.3528 -15.7901 -23.1532
ltibia 41.0334
lfoot -15.2877 -12.314
ltoes -10.0329
2130
root 0.0707957 17.236 -0.944832 -3.66053 36.8168 2.78493
lowerback 10.4991 4.55226 -1.81013
upperback 12.1826 6.22335 1.09094
thorax 6.71583 3.06404 1.87683
lowerneck 3.65407 -8.02929 -5.94868
upperneck 32.4094 -13.8427 14.4666
head 11.4364 -5.36796 5.32042
rclavicle -1.23246e-014 7.95139e-015
rhumerus -36.8597 6.46902 -88.5469
rradius 65.3311
rwrist 18.8249
rhand 1.86267 -3.73925
rfingers 7.12502
rthumb 27.3732 -31.7713
lclavicle -1.23246e-014 7.95139e-015
lhumerus -32.8403 -19.4496 95.029
lradius 72.6695
lwrist 2.98181
lhand -6.85793 34.3845
lfingers 7.12502
lthumb 19.0075 63.4758
rfemur -8.26992 -15.8254 15.4612
rtibia 43.1055
rfoot -29.885 -25.3022
rtoes 2.44988
lfemur -18.0588 -15.4712 -23.5071
ltibia 40.6893
lfoot -15.2746 -12.2516
ltoes -10.6662
2131
root 0.112268 17.2478 -0.936364 -3.50782 36.4895 2.98774
lowerback 10.0629 4.50717 -1.7935
upperback 11.9246 6.15306 1.15129
thorax 6.66515 3.02152 1.95576
lowerneck 3.77653 -8.04471 -6.0892
upperneck 32.2937 -13.7615 14.0896
head 11.3291 -5.39326 5.20332
rclavicle -2.44505e-014 1.03368e-014
rhumerus -36.9149 6.49973 -88.5359
rradius 64.8748
rwrist 18.8647
rhand 2.31084 -3.8385
rfingers 7.12502
rthumb 27.8018 -31.802
lclavicle -2.44505e-014 1.03368e-014
lhumerus -32.7958 -19.4197 95.0796
lradius 72.0035
lwrist 3.15052
lhand -6.55611 34.2214
lfingers 7.12502
lthumb 19.2977 63.2839
rfemur -8.11195 -15.5225 15.1906
rtibia 42.8514
rfoot -29.8385 -25.2708
rtoes 2.42894
lfemur -17.7559 -15.1503 -23.78
ltibia 40.34
lfoot -15.2627 -12.2047
ltoes -10.6888
2132
root 0.153312 17.2624 -0.925723 -3.49894 36.0983 2.97745
lowerback 9.61992 4.45695 -1.62999
upperback 11.6895 6.08217 1.25255
thorax 6.65502 2.98752 1.99899
lowerneck 3.83831 -8.06844 -6.20834
upperneck 32.1696 -13.6867 13.6758
head 11.2277 -5.42077 5.06541
rclavicle 8.22969e-014 -4.21423e-014
rhumerus -36.9192 6.46301 -88.5068
rradius 64.443
rwrist 18.7931
rhand 3.23502 -3.94197
rfingers 7.12502
rthumb 28.6851 -31.7594
lclavicle 8.22969e-014 -4.21423e-014
lhumerus -32.7245 -19.3727 95.0924
lradius 71.3322
lwrist 3.25241
lhand -6.20231 34.2551
lfingers 7.12502
lthumb 19.6379 63.2832
rfemur -7.91946 -15.1787 15.1163
rtibia 42.5651
rfoot -29.7454 -25.251
rtoes 2.28314
lfemur -17.4191 -14.8118 -23.8565
ltibia 39.9925
lfoot -15.2686 -12.1768
ltoes -10.5913
2133
root 0.19022 17.2771 -0.917518 -3.39194 35.6998 3.13039
lowerback 9.2803 4.41418 -1.60001
upperback 11.4256 6.01417 1.29508
thorax 6.5507 2.94971 2.04205
lowerneck 3.87637 -8.07872 -6.31057
upperneck 32.1004 -13.6169 13.3258
head 11.1596 -5.43928 4.95171
rclavicle 1.35969e-013 -3.18055e-014
rhumerus -36.8352 6.37734 -88.5269
rradius 63.7934
rwrist 18.926
rhand 3.75396 -3.90488
rfingers 7.12502
rthumb 29.1808 -31.6374
lclavicle 1.35969e-013 -3.18055e-014
lhumerus -32.6561 -19.3525 95.0888
lradius 70.6401
lwrist 3.29396
lhand -6.15548 34.5089
lfingers 7.12502
lthumb 19.6829 63.5325
rfemur -7.73956 -14.8538 14.9007
rtibia 42.2493
rfoot -29.6231 -25.1626
rtoes 2.08716
lfemur -17.0979 -14.4934 -24.0764
ltibia 39.6446
lfoot -15.2915 -12.0678
ltoes -10.6682
2134
root 0.225872 17.292 -0.910927 -3.2741 35.3307 3.27495
lowerback 8.97646 4.34181 -1.54052
upperback 11.1436 5.90806 1.31585
thorax 6.41463 2.89671 2.04339
lowerneck 3.81235 -8.07002 -6.41936
upperneck 32.1569 -13.5345 12.9792
head 11.1622 -5.4431 4.84305
rclavicle 5.84427e-014 -4.37326e-014
rhumerus -36.6298 6.39772 -88.5658
rradius 62.9862
rwrist 19.132
rhand 3.87433 -3.86985
rfingers 7.12502
rthumb 29.2957 -31.5824
lclavicle 5.84427e-014 -4.37326e-014
lhumerus -32.5726 -19.2286 95.053
lradius 69.8904
lwrist 3.03457
lhand -6.31034 34.4312
lfingers 7.12502
lthumb 19.534 63.4699
rfemur -7.57275 -14.5725 14.6923
rtibia 41.9023
rfoot -29.4352 -25.0956
rtoes 1.91899
lfemur -16.8274 -14.2222 -24.2854
ltibia 39.3109
lfoot -15.2731 -11.9911
ltoes -10.5534
2135
root 0.26305 17.3077 -0.90167 -3.23095 34.9316 3.2902
lowerback 8.6185 4.26939 -1.3763
upperback 10.8778 5.8066 1.36251
thorax 6.33463 2.85139 2.01961
lowerneck 3.80554 -8.04582 -6.5588
upperneck 32.0882 -13.437 12.7068
head 11.1094 -5.44542 4.76791
rclavicle 3.02153e-014 -2.8625e-014
rhumerus -36.5484 6.45654 -88.5822
rradius 62.3621
rwrist 19.256
rhand 3.93327 -3.98049
rfingers 7.12502
rthumb 29.352 -31.6832
lclavicle 3.02153e-014 -2.8625e-014
lhumerus -32.5043 -19.1684 95.021
lradius 69.0981
lwrist 2.80107
lhand -6.07847 34.0186
lfingers 7.12502
lthumb 19.7569 63.0345
rfemur -7.38868 -14.2374 14.6141
rtibia 41.5432
rfoot -29.1634 -25.1246
rtoes 1.54781
lfemur -16.5497 -13.9493 -24.3731
ltibia 38.9888
lfoot -15.2164 -11.9441
ltoes -9.86842
2136
root 0.298989 17.3225 -0.890058 -3.18923 34.5143 3.23792
lowerback 8.24735 4.22693 -1.1467
upperback 10.5783 5.74699 1.38422
thorax 6.23317 2.8325 1.93114
lowerneck 3.79541 -8.06315 -6.58095
upperneck 32.0648 -13.4021 12.4196
head 11.075 -5.4614 4.66248
rclavicle 2.06736e-014 1.19271e-014
rhumerus -36.607 6.35988 -88.6286
rradius 61.8797
rwrist 19.3802
rhand 4.15478 -4.08431
rfingers 7.12502
rthumb 29.5635 -31.7497
lclavicle 2.06736e-014 1.19271e-014
lhumerus -32.5341 -19.3324 95.0008
lradius 68.3499
lwrist 2.85933
lhand -5.73617 33.8748
lfingers 7.12502
lthumb 20.086 62.8565
rfemur -7.2192 -13.8474 14.6233
rtibia 41.1699
rfoot -29.1334 -24.9814
rtoes 1.95625
lfemur -16.3155 -13.6939 -24.3919
ltibia 38.6829
lfoot -15.28 -11.7784
ltoes -10.0949
2137
root 0.330899 17.3352 -0.878793 -3.13265 34.0625 3.24234
lowerback 7.93512 4.2071 -0.9925
upperback 10.2809 5.71416 1.40083
thorax 6.09519 2.82255 1.8726
lowerneck 3.79846 -8.08028 -6.62918
upperneck 32.0226 -13.3666 12.1434
head 11.0336 -5.48065 4.56611
rclavicle 6.30147e-014 -2.46493e-014
rhumerus -36.6636 6.2511 -88.6433
rradius 61.4033
rwrist 19.4262
rhand 4.45888 -4.18314
rfingers 7.12502
rthumb 29.8537 -31.7968
lclavicle 6.30147e-014 -2.46493e-014
lhumerus -32.6206 -19.5315 95.0696
lradius 67.666
lwrist 3.05851
lhand -5.70186 33.9969
lfingers 7.12502
lthumb 20.1189 62.9752
rfemur -7.05272 -13.448 14.5822
rtibia 40.7834
rfoot -29.1172 -24.811
rtoes 2.32643
lfemur -16.0794 -13.4678 -24.4536
ltibia 38.3785
lfoot -15.3547 -11.5427
ltoes -10.2957
